# xmcd CD database file
#
# Track frame offsets:
#	150
#	15862
#	31545
#	44393
#	60606
#	75502
#	97725
#	115519
#	129583
#	140853
#	159602
#	175674
#	206447
#	226651
#	239423
#
# Disc length: 3411 seconds
#
# Revision: 0
# Processed by: cddbd v1.5.2PL0 Copyright (c) Steve Scherf et al.
# Submitted via: CDex 1.70beta2
#
DISCID=aa0d510f
DTITLE=Auntie Kate - Aunthology
DYEAR=2008
DGENRE=Blues
TTITLE0=Cash Talking
TTITLE1=Never Been Rocked Enough
TTITLE2=Think
TTITLE3=I Can't Stand The Rain
TTITLE4=Trading Post
TTITLE5=The Wind
TTITLE6=Unchain My Heart
TTITLE7=Keep On Loving Me
TTITLE8=Cruising For Love
TTITLE9=River Of Blues
TTITLE10=She Caught The Katie
TTITLE11=Tough World
TTITLE12=Shot Full Of Funk
TTITLE13=Love You Like A Woman
TTITLE14=You Haven't Hurt Me
EXTD=YEAR: 2008
EXTT0=
EXTT1=
EXTT2=
EXTT3=
EXTT4=
EXTT5=
EXTT6=
EXTT7=
EXTT8=
EXTT9=
EXTT10=
EXTT11=
EXTT12=
EXTT13=
EXTT14=
PLAYORDER=
